<svg width="48" height="48" viewBox="0 0 48 48" fill="none" xmlns="http://www.w3.org/2000/svg">
<rect width="48" height="48" rx="24" fill="#F9FAFB"/>
<path d="M24 21.9001C27.4794 21.9001 30.3 19.0794 30.3 15.6001C30.3 12.1207 27.4794 9.30005 24 9.30005C20.5206 9.30005 17.7 12.1207 17.7 15.6001C17.7 19.0794 20.5206 21.9001 24 21.9001Z" fill="#A9A9A9"/>
<path d="M35.82 32.7601C30.96 39.3001 21.7499 40.65 15.2099 35.8201C14.04 34.95 13.02 33.93 12.15 32.7601C11.73 32.13 11.67 31.3201 12 30.6601L12.45 29.73C13.5 27.51 15.72 26.1001 18.18 26.1001H29.8499C32.2499 26.1001 34.44 27.4801 35.52 29.6401L36 30.63C36.3 31.3201 36.2699 32.13 35.82 32.7601Z" fill="#A9A9A9"/>
</svg>
