<svg width="24" height="24" viewBox="0 0 24 24" fill="none" xmlns="http://www.w3.org/2000/svg">
<path d="M5.59378 11.0575L8.70613 7.17947C8.73596 7.1397 8.77574 7.09992 8.81054 7.06512V7.02535L9.06907 6.87619L9.08896 6.88614C9.25303 6.81156 9.45687 6.79167 9.6458 6.8215C9.68558 6.82647 9.72535 6.83642 9.76513 6.85133C9.96897 6.91597 10.148 7.04026 10.2723 7.21428L10.3568 7.27891V7.34851L14.8215 14.6074L17.372 11.4304C17.5609 11.1967 17.8344 11.0674 18.1327 11.0674H23.2487C24.2033 8.70582 23.7906 5.852 21.9958 3.92791C20.8423 2.68993 19.3011 2.00879 17.6554 2.00879C16.0047 2.00879 14.4635 2.68993 13.3249 3.91796L12.1019 5.20069L10.8888 3.92791C9.7353 2.68993 8.19403 2.00879 6.54836 2.00879C4.89772 2.00879 3.35646 2.68993 2.20797 3.92791C0.418122 5.85697 0.000489205 8.70582 0.955077 11.0674H5.59378V11.0575Z" fill="#E02424"/>
<path d="M15.2449 17.1083L15.1504 17.163C15.0162 17.2326 14.867 17.2674 14.7129 17.2674C14.6533 17.2674 14.5886 17.2624 14.529 17.2525L14.4395 17.2326C14.2108 17.163 14.0119 17.0188 13.8876 16.8199L9.36822 9.47656L6.81768 12.6535C6.62875 12.8872 6.3553 13.0165 6.05699 13.0165H2.16406C2.17401 13.0314 2.18395 13.0414 2.19887 13.0563L9.7063 21.046C10.3228 21.7022 11.1929 22.0801 12.0928 22.0801C12.9927 22.0801 13.8627 21.7022 14.4792 21.046L21.9916 13.0513C22.0016 13.0414 22.0115 13.0264 22.0215 13.0165H18.5959L15.4786 16.8945C15.4239 16.9691 15.3394 17.0486 15.2449 17.1083Z" fill="#E02424"/>
</svg>
