<svg width="25" height="24" viewBox="0 0 25 24" fill="none" xmlns="http://www.w3.org/2000/svg">
<g clip-path="url(#clip0_3101_42495)">
<path fill-rule="evenodd" clip-rule="evenodd" d="M18.3833 2C18.6645 1.99998 18.9426 2.05927 19.1993 2.17399C19.4561 2.28871 19.6858 2.45629 19.8734 2.66578C20.061 2.87528 20.2023 3.12198 20.2881 3.38979C20.3739 3.6576 20.4022 3.94049 20.3713 4.22L18.5933 20.22C18.5391 20.7094 18.3064 21.1616 17.9396 21.49C17.5727 21.8184 17.0977 22 16.6053 22H8.3953C7.90294 22 7.42786 21.8184 7.06105 21.49C6.69423 21.1616 6.46146 20.7094 6.4073 20.22L4.6303 4.22C4.59938 3.94057 4.62771 3.65777 4.71345 3.39003C4.79919 3.12229 4.94042 2.87563 5.12791 2.66616C5.3154 2.45668 5.54495 2.28908 5.80159 2.17429C6.05822 2.05951 6.33617 2.00012 6.6173 2H18.3833ZM13.5003 15C13.2351 15 12.9807 15.1054 12.7932 15.2929C12.6057 15.4804 12.5003 15.7348 12.5003 16C12.5003 16.2652 12.6057 16.5196 12.7932 16.7071C12.9807 16.8946 13.2351 17 13.5003 17C13.7655 17 14.0199 16.8946 14.2074 16.7071C14.3949 16.5196 14.5003 16.2652 14.5003 16C14.5003 15.7348 14.3949 15.4804 14.2074 15.2929C14.0199 15.1054 13.7655 15 13.5003 15ZM10.5003 12C10.2351 12 9.98073 12.1054 9.79319 12.2929C9.60566 12.4804 9.5003 12.7348 9.5003 13C9.5003 13.2652 9.60566 13.5196 9.79319 13.7071C9.98073 13.8946 10.2351 14 10.5003 14C10.7655 14 11.0199 13.8946 11.2074 13.7071C11.3949 13.5196 11.5003 13.2652 11.5003 13C11.5003 12.7348 11.3949 12.4804 11.2074 12.2929C11.0199 12.1054 10.7655 12 10.5003 12ZM18.3833 4H6.6173L7.0423 7.823L7.2293 7.79C7.4893 7.746 7.7903 7.71 8.1293 7.69C9.2573 7.623 10.7923 7.747 12.5593 8.443L12.8943 8.581C14.3863 9.221 15.6593 9.353 16.5753 9.322L17.7993 9.254L18.3833 4Z" fill="#2FAEC2"/>
</g>
<defs>
<clipPath id="clip0_3101_42495">
<rect width="24" height="24" fill="white" transform="translate(0.5)"/>
</clipPath>
</defs>
</svg>
